<svg width="900" height="900" fill="none" xml:space="preserve" xmlns="http://www.w3.org/2000/svg"><path style="opacity:.835025;fill:none;fill-rule:evenodd;stroke:#ff8b3b;stroke-width:2.87872;stroke-dasharray:none;stroke-opacity:.85098" d="m860.45 496.592-94.59-205.593m-43.58 526.097 171.33-227.644M128.36 739.017l199.423 134.685 250.14 7.087m-56.755-104.551L249.983 688.46 50.775 515.086l-48.826 72.8 166.887 224.33m417.33-681.82L522.69 328.152l166.967 222.142L521.207 776.4M107.85 269.606l73.172-182.8m584.882 204.325L522.75 328.108l-274.706 88.074 193.962 153.301m455.979-260.922-4.27 281.293M731.577 92.798l166.875 215.68m-.173.127-37.44 187.963 32.801 93.176-121.254 142.09-50.15 85.402-144.273 63.99-119.273 17.327-131-24.623-158.7-61.702-40.858-73.13L1.943 587.929l-.33-279.623L180.98 86.743 317.369 9.36l139.31-7.907L181.09 86.762l149.264 57.818-222.76 125.029L1.703 308.503l49.09 207.255 57.35-245.8 139.926 146.009 82.298-271.332L522.91 328.144l-81.266 241.62-191.512 118.684-2.112-272.12-196.994 99.198 77.16 223.513 121.75-50.493 77.795 185.346 193.46-97.99 56.876 105.24 194.046-148.524-250.949 44.076-79.025-207.25 247.284-19.199 82.952 181.485 88.298-235.42-170.93 53.843 76.336-258.97-179.93-160.762 144.516-37.653L456.72 1.928l129.548 128.431-256.292 14.31L456.88 1.528l111.558 16.498 162.394 74.567L765.93 291.18z"/></svg>