<?xml version="1.0" encoding="UTF-8"?>
<svg width="400" height="400" fill="none" version="1.1" xml:space="preserve" xmlns="http://www.w3.org/2000/svg"><defs><filter id="filter26481" x="-.23136" y="-.23136" width="1.4627" height="1.4627" color-interpolation-filters="sRGB"><feGaussianBlur stdDeviation="1.4717376"/></filter></defs><path d="m382.43 220.71-42.041-91.376m-19.369 233.82 76.148-101.18m-340.12 66.474 88.635 59.862 111.18 3.15m-25.225-46.468-120.53-39.013-88.538-77.057-21.702 32.356 74.173 99.704m185.48-303.04-28.211 87.894 74.209 98.731-74.868 100.49m-183.72-225.25 32.522-81.246m259.95 90.812-108.07 16.435-122.09 39.145 86.207 68.135m202.66-115.97-1.897 125.02m-72.063-220.92 74.168 95.86m-0.077 0.056-16.64 83.54 14.578 41.413-53.891 63.152-22.29 37.957-64.122 28.44-53.011 7.702-58.224-10.944-70.534-27.423-18.16-32.503-56.085-67.188-0.146-124.28 79.72-98.473 60.618-34.392 61.917-3.514-122.49 37.915 66.34 25.698-99.006 55.569-47.064 17.286 21.819 92.115 25.489-109.25 62.19 64.894 36.578-120.59 85.576 81.561-36.119 107.39-85.118 52.75-0.939-120.94-87.554 44.089 34.294 99.34 54.112-22.441 34.576 82.377 85.984-43.551 25.28 46.773 86.243-66.012-111.54 19.59-35.123-92.113 109.91-8.533 36.868 80.662 39.244-104.63-75.97 23.93 33.927-115.1-79.97-71.45 64.23-16.736-121.75-40.374 57.578 57.082-113.91 6.36 56.402-63.62 49.582 7.333 72.177 33.142 15.6 88.262z" fill="none" opacity=".83502" stroke="#ff8b3b" stroke-opacity=".85098" stroke-width="1.2795"/><circle cx="148.22" cy="66.289" r="7.6336" fill="#000" fill-opacity=".53315" fill-rule="evenodd" filter="url(#filter26481)"/><circle cx="147.13" cy="64.554" r="7.6336" fill="#ff8b3b" fill-rule="evenodd"/></svg>
