<?xml version="1.0" encoding="UTF-8" standalone="no"?>
<svg
   width="400"
   height="400"
   fill="none"
   xml:space="preserve"
   version="1.1"
   id="svg20151"
   sodipodi:docname="naranja4.svg"
   inkscape:version="1.2.1 (9c6d41e, 2022-07-14)"
   xmlns:inkscape="http://www.inkscape.org/namespaces/inkscape"
   xmlns:sodipodi="http://sodipodi.sourceforge.net/DTD/sodipodi-0.dtd"
   xmlns="http://www.w3.org/2000/svg"
   xmlns:svg="http://www.w3.org/2000/svg"><defs
     id="defs20155" /><sodipodi:namedview
     id="namedview20153"
     pagecolor="#ffffff"
     bordercolor="#000000"
     borderopacity="0.25"
     inkscape:showpageshadow="2"
     inkscape:pageopacity="0.0"
     inkscape:pagecheckerboard="0"
     inkscape:deskcolor="#d1d1d1"
     showgrid="false"
     inkscape:zoom="1.3773183"
     inkscape:cx="222.89691"
     inkscape:cy="213.82131"
     inkscape:window-width="1440"
     inkscape:window-height="847"
     inkscape:window-x="0"
     inkscape:window-y="25"
     inkscape:window-maximized="1"
     inkscape:current-layer="svg20151" /><path
     style="opacity:.835025;fill:none;fill-rule:evenodd;stroke:#ff8b3b;stroke-width:1.27946;stroke-dasharray:none;stroke-opacity:.85098"
     d="m382.434 220.706-42.041-91.376m-19.369 233.825 76.148-101.177M57.054 328.452l88.635 59.862 111.175 3.15m-25.225-46.468L111.11 305.983l-88.538-77.057L.87 261.282l74.173 99.704M260.527 57.949l-28.211 87.894 74.209 98.731-74.868 100.494M47.938 119.822 80.46 38.576m259.952 90.812-108.07 16.435-122.094 39.145 86.207 68.135m202.661-115.968-1.897 125.022M325.156 41.239l74.168 95.86m-.077.056-16.64 83.54 14.578 41.413-53.891 63.152-22.29 37.957-64.122 28.44-53.011 7.702-58.224-10.944-70.534-27.423-18.16-32.503L.868 261.301.722 137.02l79.72-98.473L141.06 4.155 202.977.641 80.49 38.556l66.34 25.698-99.006 55.569L.76 137.109l21.819 92.115 25.489-109.246 62.19 64.894 36.578-120.594 85.576 81.561-36.119 107.389-85.118 52.75-.939-120.945-87.554 44.089 34.294 99.34 54.112-22.441 34.576 82.377 85.984-43.551 25.28 46.773 86.243-66.012-111.535 19.59-35.123-92.113 109.907-8.533 36.868 80.662 39.244-104.633-75.97 23.93 33.927-115.1-79.97-71.45 64.23-16.736L202.996.851l57.578 57.082-113.91 6.36L203.066.673l49.582 7.333 72.177 33.142 15.6 88.262z"
     id="path20149" /><circle
     style="fill:#ff8b3b;fill-opacity:1;fill-rule:evenodd;stroke:none;stroke-width:2.30284;stroke-opacity:0.85098"
     id="path20689"
     cx="146.22168"
     cy="64.288521"
     r="7.6336217" /></svg>
